<mxfile host="app.diagrams.net" modified="2022-12-20T12:53:33.182Z" agent="5.0 (Windows NT 10.0; Win64; x64) AppleWebKit/537.36 (KHTML, like Gecko) Chrome/108.0.0.0 Safari/537.36" version="20.7.4" etag="AmNCpj5IUV40OH_SoyG5" type="github">
  <diagram id="YyCVidHkXReEo9006LBj" name="PÃ¡gina-1">
    <mxGraphModel dx="1235" dy="646" grid="1" gridSize="10" guides="1" tooltips="1" connect="1" arrows="1" fold="1" page="1" pageScale="1" pageWidth="827" pageHeight="1169" math="0" shadow="0">
      <root>
        <mxCell id="0" />
        <mxCell id="1" parent="0" />
        <mxCell id="x0Y-q168vr4o3Jg_PzOY-10" style="edgeStyle=orthogonalEdgeStyle;rounded=0;orthogonalLoop=1;jettySize=auto;html=1;entryX=-0.005;entryY=0.202;entryDx=0;entryDy=0;entryPerimeter=0;fontSize=11;fillColor=#dae8fc;strokeColor=#6c8ebf;" edge="1" parent="1" source="x0Y-q168vr4o3Jg_PzOY-2" target="x0Y-q168vr4o3Jg_PzOY-5">
          <mxGeometry relative="1" as="geometry" />
        </mxCell>
        <mxCell id="x0Y-q168vr4o3Jg_PzOY-2" value="" style="shape=actor;whiteSpace=wrap;html=1;fillColor=#dae8fc;strokeColor=#6c8ebf;" vertex="1" parent="1">
          <mxGeometry x="20" y="70" width="20" height="30" as="geometry" />
        </mxCell>
        <mxCell id="x0Y-q168vr4o3Jg_PzOY-9" style="edgeStyle=orthogonalEdgeStyle;rounded=0;orthogonalLoop=1;jettySize=auto;html=1;exitX=0.75;exitY=1;exitDx=0;exitDy=0;fontSize=11;fillColor=#d5e8d4;strokeColor=#82b366;" edge="1" parent="1" source="x0Y-q168vr4o3Jg_PzOY-3" target="x0Y-q168vr4o3Jg_PzOY-5">
          <mxGeometry relative="1" as="geometry" />
        </mxCell>
        <mxCell id="x0Y-q168vr4o3Jg_PzOY-3" value="" style="shape=actor;whiteSpace=wrap;html=1;fillColor=#d5e8d4;strokeColor=#82b366;" vertex="1" parent="1">
          <mxGeometry x="80" y="10" width="20" height="30" as="geometry" />
        </mxCell>
        <mxCell id="x0Y-q168vr4o3Jg_PzOY-20" style="edgeStyle=orthogonalEdgeStyle;rounded=0;orthogonalLoop=1;jettySize=auto;html=1;entryX=0.198;entryY=-0.008;entryDx=0;entryDy=0;entryPerimeter=0;fontSize=11;fillColor=#d5e8d4;strokeColor=#82b366;" edge="1" parent="1" source="x0Y-q168vr4o3Jg_PzOY-4" target="x0Y-q168vr4o3Jg_PzOY-19">
          <mxGeometry relative="1" as="geometry" />
        </mxCell>
        <mxCell id="x0Y-q168vr4o3Jg_PzOY-21" style="edgeStyle=orthogonalEdgeStyle;rounded=0;orthogonalLoop=1;jettySize=auto;html=1;entryX=0.795;entryY=-0.012;entryDx=0;entryDy=0;entryPerimeter=0;fontSize=11;fillColor=#dae8fc;strokeColor=#6c8ebf;" edge="1" parent="1" source="x0Y-q168vr4o3Jg_PzOY-4" target="x0Y-q168vr4o3Jg_PzOY-19">
          <mxGeometry relative="1" as="geometry" />
        </mxCell>
        <mxCell id="x0Y-q168vr4o3Jg_PzOY-22" style="edgeStyle=orthogonalEdgeStyle;rounded=0;orthogonalLoop=1;jettySize=auto;html=1;entryX=0.5;entryY=0;entryDx=0;entryDy=0;fontSize=11;fillColor=#f8cecc;strokeColor=#b85450;" edge="1" parent="1" source="x0Y-q168vr4o3Jg_PzOY-4" target="x0Y-q168vr4o3Jg_PzOY-18">
          <mxGeometry relative="1" as="geometry" />
        </mxCell>
        <mxCell id="x0Y-q168vr4o3Jg_PzOY-4" value="" style="shape=datastore;whiteSpace=wrap;html=1;fillColor=#fff2cc;strokeColor=#d6b656;" vertex="1" parent="1">
          <mxGeometry x="280" y="120" width="40" height="40" as="geometry" />
        </mxCell>
        <mxCell id="x0Y-q168vr4o3Jg_PzOY-16" style="edgeStyle=orthogonalEdgeStyle;rounded=0;orthogonalLoop=1;jettySize=auto;html=1;fontSize=11;fillColor=#fff2cc;strokeColor=#d6b656;" edge="1" parent="1" source="x0Y-q168vr4o3Jg_PzOY-5" target="x0Y-q168vr4o3Jg_PzOY-4">
          <mxGeometry relative="1" as="geometry" />
        </mxCell>
        <mxCell id="x0Y-q168vr4o3Jg_PzOY-5" value="LOGIN" style="swimlane;whiteSpace=wrap;html=1;fontSize=11;" vertex="1" parent="1">
          <mxGeometry x="80" y="80" width="130" height="110" as="geometry" />
        </mxCell>
        <mxCell id="x0Y-q168vr4o3Jg_PzOY-12" value="" style="rounded=0;whiteSpace=wrap;html=1;fontSize=11;" vertex="1" parent="x0Y-q168vr4o3Jg_PzOY-5">
          <mxGeometry x="35" y="40" width="60" height="10" as="geometry" />
        </mxCell>
        <mxCell id="x0Y-q168vr4o3Jg_PzOY-13" value="" style="rounded=0;whiteSpace=wrap;html=1;fontSize=11;" vertex="1" parent="x0Y-q168vr4o3Jg_PzOY-5">
          <mxGeometry x="35" y="60" width="60" height="10" as="geometry" />
        </mxCell>
        <mxCell id="x0Y-q168vr4o3Jg_PzOY-14" value="" style="rounded=0;whiteSpace=wrap;html=1;fontSize=11;" vertex="1" parent="x0Y-q168vr4o3Jg_PzOY-5">
          <mxGeometry x="35" y="80" width="20" height="10" as="geometry" />
        </mxCell>
        <mxCell id="x0Y-q168vr4o3Jg_PzOY-15" value="" style="rounded=0;whiteSpace=wrap;html=1;fontSize=11;" vertex="1" parent="x0Y-q168vr4o3Jg_PzOY-5">
          <mxGeometry x="75" y="80" width="20" height="10" as="geometry" />
        </mxCell>
        <mxCell id="x0Y-q168vr4o3Jg_PzOY-7" value="LEYENDA:&lt;br&gt;AZUL: Usuario&lt;br&gt;VERDE: Administrador&lt;br&gt;ROJO: Organizador&lt;br&gt;NARANJA: BBDD" style="rounded=0;whiteSpace=wrap;html=1;fontSize=11;" vertex="1" parent="1">
          <mxGeometry x="670" y="10" width="140" height="100" as="geometry" />
        </mxCell>
        <mxCell id="x0Y-q168vr4o3Jg_PzOY-11" style="edgeStyle=orthogonalEdgeStyle;rounded=0;orthogonalLoop=1;jettySize=auto;html=1;fontSize=11;fillColor=#f8cecc;strokeColor=#b85450;" edge="1" parent="1" source="x0Y-q168vr4o3Jg_PzOY-8">
          <mxGeometry relative="1" as="geometry">
            <mxPoint x="80" y="150" as="targetPoint" />
          </mxGeometry>
        </mxCell>
        <mxCell id="x0Y-q168vr4o3Jg_PzOY-8" value="" style="shape=actor;whiteSpace=wrap;html=1;fillColor=#f8cecc;strokeColor=#b85450;" vertex="1" parent="1">
          <mxGeometry x="20" y="150" width="20" height="30" as="geometry" />
        </mxCell>
        <mxCell id="x0Y-q168vr4o3Jg_PzOY-18" value="VISTA ADMINISTRADOR - INDEX" style="swimlane;whiteSpace=wrap;html=1;fontSize=11;" vertex="1" parent="1">
          <mxGeometry x="80" y="240" width="200" height="200" as="geometry" />
        </mxCell>
        <mxCell id="x0Y-q168vr4o3Jg_PzOY-19" value="VISTA USUARIO - INDEX" style="swimlane;whiteSpace=wrap;html=1;fontSize=11;" vertex="1" parent="1">
          <mxGeometry x="320" y="240" width="200" height="200" as="geometry" />
        </mxCell>
        <mxCell id="x0Y-q168vr4o3Jg_PzOY-23" value="" style="shape=actor;whiteSpace=wrap;html=1;fillColor=#d5e8d4;strokeColor=#82b366;" vertex="1" parent="1">
          <mxGeometry x="370" y="210" width="20" height="30" as="geometry" />
        </mxCell>
        <mxCell id="x0Y-q168vr4o3Jg_PzOY-24" value="" style="shape=actor;whiteSpace=wrap;html=1;fillColor=#dae8fc;strokeColor=#6c8ebf;" vertex="1" parent="1">
          <mxGeometry x="450" y="210" width="20" height="30" as="geometry" />
        </mxCell>
        <mxCell id="x0Y-q168vr4o3Jg_PzOY-25" value="" style="shape=actor;whiteSpace=wrap;html=1;fillColor=#f8cecc;strokeColor=#b85450;" vertex="1" parent="1">
          <mxGeometry x="190" y="210" width="20" height="30" as="geometry" />
        </mxCell>
      </root>
    </mxGraphModel>
  </diagram>
</mxfile>
